<svg width="100%" height="100%" viewBox="0 0 27 38" xmlns="http://www.w3.org/2000/svg">
  <path fill="#fff" d="M11.868 35.2508L13.4286 34L14.9892 35.2508L13.4286 37.198L11.868 35.2508ZM14.6902 32.3702C13.9163 33.3915 13.4286 34 13.4286 34C13.4286 34 12.9409 33.3915 12.167 32.3702C9.19453 28.4478 2 18.4365 2 13.4286C2 7.11675 7.11675 2 13.4286 2C19.7404 2 24.8571 7.11675 24.8571 13.4286C24.8571 18.4365 17.6626 28.4478 14.6902 32.3702ZM14.9892 35.2508C14.9892 35.2508 14.9892 35.2508 13.4286 34C11.868 35.2508 11.868 35.2508 11.868 35.2508L11.8575 35.2378L11.8308 35.2043C11.8077 35.1752 11.7741 35.1329 11.7307 35.0779C11.6439 34.968 11.5178 34.8076 11.3581 34.602C11.0388 34.1909 10.5845 33.5989 10.0401 32.8696C8.95279 31.4129 7.49931 29.399 6.04217 27.1785C4.58963 24.965 3.10874 22.509 1.98384 20.1736C0.89377 17.9104 0 15.4876 0 13.4286C0 6.01218 6.01218 0 13.4286 0C20.845 0 26.8571 6.01218 26.8571 13.4286C26.8571 15.4876 25.9634 17.9104 24.8733 20.1736C23.7484 22.509 22.2675 24.965 20.815 27.1785C19.3578 29.399 17.9044 31.4129 16.8171 32.8696C16.2727 33.5989 15.8184 34.1909 15.499 34.602C15.3393 34.8076 15.2132 34.968 15.1264 35.0779C15.083 35.1329 15.0494 35.1752 15.0263 35.2043L14.9996 35.2378L14.9892 35.2508Z" />
  <path fill="#7A92A5" d="M24.8571 13.4286C24.8571 19.7404 13.4286 34 13.4286 34C13.4286 34 2 19.7404 2 13.4286C2 7.11675 7.11675 2 13.4286 2C19.7404 2 24.8571 7.11675 24.8571 13.4286Z" />
  <circle fill="#fff"  cx="13.5" cy="13.5" r="2.5" />
</svg>
